<svg width="319" height="301" viewBox="0 0 319 301" fill="none" xmlns="http://www.w3.org/2000/svg">
<g filter="url(#filter0_d_2_202)">
<path d="M7 27C7 15.9543 15.9543 7 27 7H276C287.046 7 296 15.9543 296 27V208.867C296 219.912 287.046 228.867 276 228.867H223.75H198.733C191.825 228.867 185.405 232.432 181.754 238.297L159.989 273.257C156.076 279.544 146.924 279.544 143.011 273.257L121.246 238.297C117.595 232.432 111.175 228.867 104.267 228.867H79.25H27C15.9543 228.867 7 219.912 7 208.867V27Z" fill="white"/>
</g>
<rect x="41" y="45.6843" width="60" height="79.6444" rx="9" fill="#FDF8EF"/>
<rect x="51" y="57.062" width="30" height="4.55111" rx="2.27556" fill="#F5CE88"/>
<rect x="51" y="66.1643" width="18" height="4.55111" rx="2.27556" fill="#E1D3B8"/>
<path d="M52.0254 112.296H53.25V113.573H52.0254V112.296ZM55.3652 104.966H59.2383C60.0039 104.966 60.6211 105.183 61.0898 105.616C61.5586 106.046 61.793 106.651 61.793 107.433C61.793 108.104 61.584 108.69 61.166 109.19C60.748 109.687 60.1055 109.935 59.2383 109.935H56.5312V113.573H55.3652V104.966ZM60.6152 107.438C60.6152 106.806 60.3809 106.376 59.9121 106.149C59.6543 106.028 59.3008 105.968 58.8516 105.968H56.5312V108.95H58.8516C59.375 108.95 59.7988 108.839 60.123 108.616C60.4512 108.394 60.6152 108.001 60.6152 107.438ZM66.5625 112.577C66.957 112.577 67.2812 112.536 67.5352 112.454C67.9883 112.302 68.3594 112.009 68.6484 111.575C68.8789 111.228 69.0449 110.782 69.1465 110.239C69.2051 109.915 69.2344 109.614 69.2344 109.337C69.2344 108.271 69.0215 107.442 68.5957 106.853C68.1738 106.263 67.4922 105.968 66.5508 105.968H64.4824V112.577H66.5625ZM63.3105 104.966H66.7969C67.9805 104.966 68.8984 105.386 69.5508 106.226C70.1328 106.983 70.4238 107.954 70.4238 109.138C70.4238 110.052 70.252 110.878 69.9082 111.616C69.3027 112.921 68.2617 113.573 66.7852 113.573H63.3105V104.966ZM72.041 104.966H78.0117V106.021H73.207V108.634H77.4316V109.659H73.207V113.573H72.041V104.966Z" fill="#F5CE88"/>
<rect x="87" y="158.324" width="130" height="34.1333" rx="9" fill="#EFF1FD"/>
<rect x="112" y="171.978" width="80" height="6.82667" rx="3.41333" fill="#4424A7"/>
<rect x="121" y="45.6843" width="60" height="79.6444" rx="9" fill="#FFECF2"/>
<rect x="131" y="57.062" width="30" height="4.55111" rx="2.27556" fill="#FFA2C0"/>
<rect x="131" y="66.1643" width="18" height="4.55111" rx="2.27556" fill="#EFCAD6"/>
<path d="M132.025 112.296H133.25V113.573H132.025V112.296ZM138.881 104.731C139.971 104.731 140.816 105.019 141.418 105.593C142.02 106.167 142.354 106.819 142.42 107.55H141.283C141.154 106.995 140.896 106.556 140.51 106.231C140.127 105.907 139.588 105.745 138.893 105.745C138.045 105.745 137.359 106.044 136.836 106.642C136.316 107.235 136.057 108.147 136.057 109.378C136.057 110.386 136.291 111.204 136.76 111.833C137.232 112.458 137.936 112.771 138.869 112.771C139.729 112.771 140.383 112.44 140.832 111.78C141.07 111.433 141.248 110.976 141.365 110.409H142.502C142.4 111.315 142.064 112.075 141.494 112.688C140.811 113.427 139.889 113.796 138.729 113.796C137.729 113.796 136.889 113.493 136.209 112.888C135.314 112.087 134.867 110.851 134.867 109.179C134.867 107.909 135.203 106.868 135.875 106.056C136.602 105.173 137.604 104.731 138.881 104.731ZM144.688 110.796C144.715 111.284 144.83 111.681 145.033 111.985C145.42 112.556 146.102 112.841 147.078 112.841C147.516 112.841 147.914 112.778 148.273 112.653C148.969 112.411 149.316 111.978 149.316 111.353C149.316 110.884 149.17 110.55 148.877 110.351C148.58 110.155 148.115 109.985 147.482 109.841L146.316 109.577C145.555 109.405 145.016 109.216 144.699 109.009C144.152 108.649 143.879 108.112 143.879 107.397C143.879 106.624 144.146 105.989 144.682 105.493C145.217 104.997 145.975 104.749 146.955 104.749C147.857 104.749 148.623 104.968 149.252 105.405C149.885 105.839 150.201 106.534 150.201 107.491H149.105C149.047 107.03 148.922 106.677 148.73 106.431C148.375 105.981 147.771 105.757 146.92 105.757C146.232 105.757 145.738 105.901 145.438 106.19C145.137 106.479 144.986 106.815 144.986 107.198C144.986 107.62 145.162 107.929 145.514 108.124C145.744 108.249 146.266 108.405 147.078 108.593L148.285 108.868C148.867 109.001 149.316 109.183 149.633 109.413C150.18 109.815 150.453 110.399 150.453 111.165C150.453 112.118 150.105 112.8 149.41 113.21C148.719 113.62 147.914 113.825 146.996 113.825C145.926 113.825 145.088 113.552 144.482 113.005C143.877 112.462 143.58 111.726 143.592 110.796H144.688ZM152.609 104.966L155.082 112.296L157.525 104.966H158.832L155.691 113.573H154.455L151.32 104.966H152.609Z" fill="#FFA2C0"/>
<rect x="201" y="45.6843" width="60" height="79.6444" rx="9" fill="#E5F7F8"/>
<rect x="211" y="57.062" width="30" height="4.55111" rx="2.27556" fill="#84D8DD"/>
<rect x="211" y="66.1643" width="18" height="4.55111" rx="2.27556" fill="#C4DFE0"/>
<path d="M212.025 112.296H213.25V113.573H212.025V112.296ZM218.881 104.731C219.971 104.731 220.816 105.019 221.418 105.593C222.02 106.167 222.354 106.819 222.42 107.55H221.283C221.154 106.995 220.896 106.556 220.51 106.231C220.127 105.907 219.588 105.745 218.893 105.745C218.045 105.745 217.359 106.044 216.836 106.642C216.316 107.235 216.057 108.147 216.057 109.378C216.057 110.386 216.291 111.204 216.76 111.833C217.232 112.458 217.936 112.771 218.869 112.771C219.729 112.771 220.383 112.44 220.832 111.78C221.07 111.433 221.248 110.976 221.365 110.409H222.502C222.4 111.315 222.064 112.075 221.494 112.688C220.811 113.427 219.889 113.796 218.729 113.796C217.729 113.796 216.889 113.493 216.209 112.888C215.314 112.087 214.867 110.851 214.867 109.179C214.867 107.909 215.203 106.868 215.875 106.056C216.602 105.173 217.604 104.731 218.881 104.731ZM224.688 110.796C224.715 111.284 224.83 111.681 225.033 111.985C225.42 112.556 226.102 112.841 227.078 112.841C227.516 112.841 227.914 112.778 228.273 112.653C228.969 112.411 229.316 111.978 229.316 111.353C229.316 110.884 229.17 110.55 228.877 110.351C228.58 110.155 228.115 109.985 227.482 109.841L226.316 109.577C225.555 109.405 225.016 109.216 224.699 109.009C224.152 108.649 223.879 108.112 223.879 107.397C223.879 106.624 224.146 105.989 224.682 105.493C225.217 104.997 225.975 104.749 226.955 104.749C227.857 104.749 228.623 104.968 229.252 105.405C229.885 105.839 230.201 106.534 230.201 107.491H229.105C229.047 107.03 228.922 106.677 228.73 106.431C228.375 105.981 227.771 105.757 226.92 105.757C226.232 105.757 225.738 105.901 225.438 106.19C225.137 106.479 224.986 106.815 224.986 107.198C224.986 107.62 225.162 107.929 225.514 108.124C225.744 108.249 226.266 108.405 227.078 108.593L228.285 108.868C228.867 109.001 229.316 109.183 229.633 109.413C230.18 109.815 230.453 110.399 230.453 111.165C230.453 112.118 230.105 112.8 229.41 113.21C228.719 113.62 227.914 113.825 226.996 113.825C225.926 113.825 225.088 113.552 224.482 113.005C223.877 112.462 223.58 111.726 223.592 110.796H224.688ZM232.609 104.966L235.082 112.296L237.525 104.966H238.832L235.691 113.573H234.455L231.32 104.966H232.609Z" fill="#7FD6DC"/>
<defs>
<filter id="filter0_d_2_202" x="0" y="0" width="319" height="300.972" filterUnits="userSpaceOnUse" color-interpolation-filters="sRGB">
<feFlood flood-opacity="0" result="BackgroundImageFix"/>
<feColorMatrix in="SourceAlpha" type="matrix" values="0 0 0 0 0 0 0 0 0 0 0 0 0 0 0 0 0 0 127 0" result="hardAlpha"/>
<feOffset dx="8" dy="8"/>
<feGaussianBlur stdDeviation="7.5"/>
<feColorMatrix type="matrix" values="0 0 0 0 0.221008 0 0 0 0 0.117361 0 0 0 0 0.541667 0 0 0 0.25 0"/>
<feBlend mode="normal" in2="BackgroundImageFix" result="effect1_dropShadow_2_202"/>
<feBlend mode="normal" in="SourceGraphic" in2="effect1_dropShadow_2_202" result="shape"/>
</filter>
</defs>
</svg>
