<svg width="48" height="48" viewBox="0 0 48 48" fill="none" xmlns="http://www.w3.org/2000/svg">
<path fill-rule="evenodd" clip-rule="evenodd" d="M29.6328 17.8329C30.5262 17.8605 31.391 18.1434 32.1192 18.6464C32.8473 19.1494 33.4064 19.8499 33.7256 20.66C34.0448 21.4704 34.1098 22.3548 33.9131 23.2011C33.4016 25.3904 33.8042 27.6873 35.0322 29.5897C36.2604 31.4922 38.2146 32.8458 40.4678 33.3544C41.0566 33.4793 41.6143 33.7165 42.1074 34.0526C42.6007 34.389 43.0201 34.818 43.3408 35.3134C43.7248 35.9269 43.9486 36.6222 43.9922 37.3388C44.0358 38.0553 43.8978 38.7715 43.5908 39.4247C43.2839 40.0776 42.8174 40.648 42.2315 41.0858C41.6454 41.5236 40.9576 41.8164 40.2285 41.9374C39.4995 42.0583 38.7505 42.0042 38.0479 41.7802C37.3452 41.556 36.7093 41.1683 36.1963 40.6513C35.6832 40.1341 35.3077 39.5024 35.1035 38.8124C34.8995 38.1226 34.8732 37.3946 35.0254 36.6923C35.2824 35.6026 35.3153 34.474 35.1221 33.372C34.9289 32.2701 34.5131 31.2162 33.8994 30.2704C33.2856 29.3245 32.4856 28.5045 31.5449 27.8593C30.6042 27.2139 29.5408 26.7556 28.417 26.5097C27.5484 26.3048 26.7615 25.8551 26.1553 25.2177C25.549 24.5803 25.1508 23.7832 25.0098 22.9267C24.8688 22.0702 24.991 21.1922 25.3623 20.4032C25.7338 19.6142 26.338 18.9485 27.0977 18.4911C27.8572 18.034 28.7395 17.8054 29.6328 17.8329ZM27.124 29.7079C27.8649 29.6896 28.5994 29.8481 29.2627 30.1688C29.926 30.4896 30.4986 30.9628 30.9297 31.5477C31.3608 32.1327 31.637 32.8116 31.7354 33.5243C31.8336 34.2372 31.7506 34.9632 31.4932 35.6376C31.2357 36.3118 30.8117 36.9148 30.2588 37.3934C29.7059 37.872 29.0408 38.2123 28.3213 38.3837C27.6017 38.5551 26.8494 38.5526 26.1309 38.3768C25.4123 38.201 24.7482 37.8571 24.1983 37.3749C23.3536 36.6139 22.363 36.0215 21.2822 35.6327C20.2015 35.244 19.0521 35.0664 17.9004 35.1093C16.7487 35.1522 15.6172 35.4157 14.5703 35.8837C13.5236 36.3517 12.5818 37.0152 11.7998 37.8368C11.2858 38.3537 10.649 38.7405 9.94533 38.9638C9.24171 39.1869 8.49216 39.2395 7.76271 39.1171C7.03344 38.9946 6.34618 38.7011 5.76076 38.2616C5.1752 37.822 4.7087 37.25 4.40334 36.5956C4.098 35.9411 3.96293 35.2238 4.00881 34.5067C4.05476 33.7899 4.28068 33.0949 4.66701 32.4823C5.05338 31.8698 5.58865 31.3579 6.22561 30.9921C6.86269 30.6262 7.58282 30.4166 8.32229 30.3827C8.92306 30.3599 9.52274 30.4531 10.086 30.6571C10.6492 30.8611 11.1651 31.172 11.6035 31.5712C13.3004 33.095 15.5499 33.9051 17.8604 33.8241C20.1709 33.743 22.3546 32.7774 23.9336 31.1386C24.3406 30.7061 24.833 30.3569 25.3809 30.1112C25.9286 29.8657 26.5211 29.7285 27.124 29.7079ZM25.9287 6.02138C26.8191 5.9348 27.7163 6.10662 28.5069 6.51357C29.2971 6.92043 29.9457 7.54482 30.3711 8.30849C30.7966 9.0724 30.9798 9.94181 30.8975 10.8065C30.8152 11.6713 30.4717 12.4934 29.9092 13.1688C29.3468 13.8442 28.5903 14.3429 27.7363 14.6024C26.6354 14.9313 25.6125 15.4682 24.7256 16.1815C23.8387 16.8949 23.1056 17.7709 22.5684 18.7597C22.031 19.7486 21.7002 20.831 21.5947 21.9442C21.4893 23.0575 21.6107 24.1805 21.9531 25.2479C22.2232 26.0848 22.23 26.9808 21.9717 27.8212C21.7133 28.6618 21.2017 29.4091 20.5029 29.9657C19.8042 30.5223 18.9498 30.8629 18.0498 30.9452C17.1498 31.0275 16.2447 30.8469 15.4512 30.4267V30.3974C14.6434 29.9947 13.9785 29.366 13.543 28.5927C13.1075 27.8193 12.9217 26.9367 13.0088 26.0595C13.096 25.1822 13.4525 24.3502 14.0322 23.6718C14.612 22.9934 15.3886 22.4993 16.2608 22.2538C18.4703 21.5891 20.3189 20.102 21.4014 18.1181C22.4837 16.1341 22.7117 13.8148 22.0362 11.6679C21.7788 10.8362 21.7811 9.94871 22.042 9.11806C22.303 8.28756 22.8114 7.55079 23.5029 6.99989C24.1946 6.44889 25.0383 6.10791 25.9287 6.02138Z" fill="#1F34E7"/>
</svg>
